<?xml version="1.0" standalone="no"?><!DOCTYPE svg PUBLIC "-//W3C//DTD SVG 1.1//EN" "http://www.w3.org/Graphics/SVG/1.1/DTD/svg11.dtd"><svg t="1522205369978" class="icon" style="" viewBox="0 0 1024 1024" version="1.1" xmlns="http://www.w3.org/2000/svg" p-id="2712" data-spm-anchor-id="a313x.7781069.0.i5" xmlns:xlink="http://www.w3.org/1999/xlink" width="32" height="32"><defs><style type="text/css"></style></defs><path d="M745.191528 669.550269l6.118348-2.657526 2.568498-1.417279 2.298346-1.586125 2.045589-1.769296 2.567476-3.096525 0.982373 1.242294 2.124384 2.288112 2.393513 2.044566 2.65855 1.765203 5.765307 3.186576h-29.522384z m26.592658-11.588943l1.237178 3.101641 3.01159-0.892323 0.623193-0.258896 0.533143-0.355087 0.529049-0.533143 1.779529-2.303462 1.501191-2.294253 1.157359-2.388396 0.973164-2.388397 0.264013-1.236154 0.090051-1.147126-0.180102-1.062192-0.529049-0.88823-0.797156-0.707104-1.062191-0.445139-1.241271-0.262989-1.417279-0.084935h-24.464181l0.265036-3.720741-1.685385-1.940189-0.88209-0.270152-0.618077-0.083912-0.713245 0.083912-0.623193 0.174985-0.528026 0.35918-0.529049 0.438999-0.449232 0.530072-0.966001 1.944282-0.713244 1.325182-1.596358 2.564405-2.128477 2.747577-1.855254 2.209318-0.090051-2.743484-1.864464-1.855254-10.361998-3.620457-1.685386-0.538259-0.712221-0.089028h-0.713244l-0.618077 0.089028-0.618077 0.270153-0.530073 0.354064-0.448208 0.433881-0.354064 0.62831-0.264013 0.618077-0.174985 0.708128v0.708128l0.174985 0.618077 0.264013 0.618077 0.445138 0.438998 0.52905 0.449232 0.537236 0.347924 1.237177 0.445138 0.977257 0.264013c1.057075 0.265036 2.124384 0.60989 3.191692 0.968048l3.190669 1.156336c1.147126 0.444115 2.303462 0.876973 3.370771 1.417279l0.698918 0.168845 0.708128 0.090051 1.779529-0.090051v1.067309l0.174985 0.618077 0.618077 1.417279-3.006473 1.236154-3.196809 2.124383-3.275603 1.944282-3.461845 1.855254a100.224656 100.224656 0 0 0-4.342911 2.03331l-0.52905 0.438998-0.444115 0.539282-0.355087 0.528026-0.179078 0.619101-0.090051 0.707104 0.090051 0.707105 0.269129 0.623193 0.360204 0.618077 0.518816 0.52905 0.62217 0.348947 0.623194 0.265036 0.708128 0.090051h0.708128l0.707104-0.090051 0.707105-0.180102 4.259-1.940188c1.596358-0.802272 3.101641-1.591241 4.691859-2.478448l2.1295-1.237177-0.083911 2.38942 0.168846 0.703011 0.893346 1.685386h-4.872984l-1.062192 0.089027-0.977257 0.25992-0.887207 0.529049-0.797155 0.62831-0.618077 0.792039-0.533143 0.88209-0.35918 0.973165-0.084935 1.072424v16.704451l0.084935 0.623193 0.179078 0.612961 0.265037 0.530072 2.75167 2.65241-6.472412 0.453325-0.708128 0.079817-0.712221 0.26913-0.62217 0.355087-0.530073 0.438999-0.448208 0.533142-0.259919 0.615007-0.179079 0.623194v0.792039l0.270153 0.713244 0.35918 0.61296 0.438999 0.533143 0.529049 0.441045 0.62831 0.26299 0.618077 0.180102 0.708128 0.090051h0.707104l6.55837-0.533143 5.849218-1.153266 5.056156-1.855254 4.247744-2.568499 3.460822-3.27151 2.662642-3.978614 1.77032-4.682649 0.973164-5.305843 0.089028-0.798179v-0.707104l-0.528026-1.944282h14.264888l0.27527 0.083911 0.259919 0.185218 0.258897 0.349971c0.095167 0.179079 0.095167 0.347924 0.095167 0.528026v12.656251l0.184195 2.293229-3.549849-1.506306c-1.775436-0.618077-3.460822-1.331321-5.236258-1.855255l-0.967024-0.354064-2.478448-0.613983-0.712221-0.100284h-0.708128l-0.618077 0.100284c-0.448208 0.084934-0.807389 0.264013-1.157359 0.433882l-1.335414 1.147126-0.079818 1.860371 0.079818 0.618076 0.268106 0.618077 0.355087 0.528026 0.448208 0.444115 0.529049 0.355088 0.618077 0.269129 2.926656 0.887207 2.833535 0.968047 2.743484 1.067309 2.756787 1.147126 2.658549 1.236154 2.65855 1.326205 2.657526 1.416255 2.7486 1.586125 2.666736 0.538259 2.214435-1.774413v-2.833535l-1.865487-2.034333-7.095605-3.709485 1.779529-0.967024 0.529049-0.448208 0.438999-0.530073 0.360204-0.618077 0.179078-0.613983 0.084935-0.62217V674.586982l-0.084935-1.057075-0.35918-0.972141-1.506307-2.748601 5.405103 1.332345 2.752694-0.180102 1.595334-2.034333v-0.977257l-0.089027-0.697895-0.185219-0.62831-0.354064-0.529049-0.440021-0.529049-0.528026-0.349971-0.623194-0.359181-4.078898-1.147126-3.096525-1.156336-3.640923-1.681292 0.091074 0.275269-4.259-3.01159-2.118244-1.855254-1.865487-2.034333-1.322112-1.859347 0.265036-0.973164 0.265037-1.236154h11.518334c-0.708128 0.966001-1.326205 1.944282-2.033309 2.921539-0.539282 0.708128-1.157359 1.417279-1.596358 2.123361l-0.270153 0.615007-0.169869 0.618076v0.623194l0.163729 0.883113z m1.326205 3.191692z m-30.048363-1.596357l-0.88209-3.186576 1.330298-0.354064c0.618077-0.264013 1.238201-0.523933 1.775436-0.967024 0.618077-0.533143 1.236154-1.062192 1.77032-1.685386 0.887206-0.972141 1.680269-1.939165 2.573615-3.006473h7.350409l-0.444115 1.500167-1.067309 2.304485-1.506306 2.03945-1.855255 1.855254-2.303462 1.676175-2.747577 1.506307-3.191692 1.321088-3.455705 1.067309 2.653433-4.070712z m10.371208 31.486108l0.52905-1.421372 1.167592-1.760087-0.100284 1.760087-1.596358 1.421372z m-2.657526-14.776542l-0.797155 1.865488-0.174986 0.787945-0.62831 4.069689-1.326205 3.450589-1.944281 2.922562-2.662643 2.38328-3.371794 1.944282-7.261381 2.562359 2.304486-2.822279 0.355087-0.618077 0.173962-0.62831 0.090051-0.613983v-14.331404l0.089028-0.355087 0.180101-0.258896 0.169869-0.180102 0.538259-0.180102h14.265912v0.002046z m-52.210105-9.811459h-27.381628l2.303463-1.855254 1.596357-1.675153 1.242294-1.775436 0.971117-1.954515 0.713245-2.025123 0.433882-2.12336 0.185218-2.214435v-4.686742h13.563924v10.710946l0.173962 1.765203 0.354064 1.497097 0.270153 0.623193 0.265036 0.533143 0.347924 0.438998 0.360204 0.355088 0.444115 0.354064 4.15667 2.032286z m-8.506745 15.646351l-1.50119 1.512447-3.01159 2.567475-1.775436-1.595334-1.156337-1.067308a43.596937 43.596937 0 0 1-2.039449-2.203179l-1.242293-1.506306-2.388397-3.181459-2.214435-3.371794h21.363564l-1.242294 2.484587-0.972141 1.684362-1.157359 1.586125-1.236154 1.591241-1.426489 1.499143z m-24.809035-13.961989l-1.864464 1.057075c-0.977257 0.618077-1.954515 1.326205-3.016707 2.033309v-11.139711h7.804756l-0.176008-4.51278-0.179079-0.438999-0.354064-0.533142-0.438998-0.444115-0.444115-0.265036-0.538259-0.180102h-5.585205V642.577964l-0.084935-0.529049-0.179078-0.533143-0.265037-0.530072-0.444115-0.444115-0.529049-0.348948-0.533142-0.180101-0.618077-0.180102h-1.331322l-0.529049 0.090051-0.533142 0.265036-0.444115 0.354064-0.438999 0.448208-0.274246 0.524956-0.176008 0.528026-0.089028 0.529049v11.144828h-5.934153l-0.528026 0.180102-0.538259 0.275269-0.438998 0.433882-0.360204 0.533143-0.173962 0.529049-0.094144 0.62217v1.315972l0.094144 0.530073 0.173962 0.537235 0.360204 0.534166 0.438998 0.348948 0.538259 0.264013 0.528026 0.180101 0.534166 0.090051h5.399987V674.597215l-2.034333 1.062192-2.662643 1.326205c-0.88823 0.445138-1.775436 0.88823-2.563382 1.416256l-0.448208 0.438998-0.35918 0.448208-0.25992 0.530073-0.095167 0.522909v0.623194l0.095167 0.618077 0.180102 0.618076 0.347924 0.618077 0.360204 0.533143 0.438998 0.444115 0.444115 0.349971 0.529049 0.173962 0.533143 0.095167h0.529049l0.623194-0.095167c0.802272-0.343831 1.600451-0.703011 2.388396-1.147127l1.954515-0.971117v13.70821l-2.658549-0.972141-2.926656-0.090051-1.586125 2.388396v0.883114l0.079818 0.707104 0.180102 0.623194 0.270153 0.613983 0.438998 0.533143 0.537236 0.528026 0.618077 0.360204 0.704035 0.348947 2.398629 0.623194 2.124384 0.258896 1.864464-0.089028 1.591241-0.440021 1.241271-0.886183 1.596357-2.304486 1.146103 1.954515 0.449232 0.533142 0.529049 0.440022 0.623193 0.347924 0.612961 0.185219 0.718361 0.079818h0.707104l0.788969-0.079818 2.751671-0.708128 2.659573-0.797156 2.567475-0.887206 2.483564-0.877997 2.393513-0.976234 2.303462-1.067308 3.900844-2.025123 1.684362 1.062191 2.303462 1.232061 2.479471 1.146103 2.666736 1.066285 2.833535 0.973164 3.01159 0.887207 3.190669 0.703011 3.450588 0.6191h0.803295l0.707105-0.091074 0.623193-0.179078 0.618077-0.349971 0.52905-0.438999 0.35918-0.537235 0.265036-0.613984 0.184196-0.704035v-0.802272l-0.184196-0.708128-0.265036-0.61296-0.35918-0.534166-0.52905-0.528026-0.538259-0.360204-0.708128-0.264013-0.708127-0.179078-2.303463-0.349971-2.214434-0.438998-2.212388-0.623194-2.124384-0.704034-2.134617-0.797156-2.12336-0.88209-3.01773-1.506307 2.568498-2.563382 1.596358-1.855254 1.506307-1.949398 1.425465-2.03331 1.322112-2.124383 1.242294-2.294253 1.156336-2.393513 0.618077-1.675152 0.355087-1.591241v-0.797156l-0.084934-0.704034-0.180102-0.713245-0.270153-0.703011-0.438999-0.623194-0.448208-0.529049-0.528026-0.444115-3.900843-2.124384h8.506745l0.708127-0.084934 0.622171-0.173962 0.613983-0.270153 0.539283-0.35918 0.448208-0.518817 0.349971-0.533142 0.168845-0.62217 0.095168-0.708128-0.095168-0.704035-0.168845-0.623193-0.265037-0.607844-0.444115-0.539283-0.533142-0.347924-0.62217-0.270153-0.708128-0.180101-0.708128-0.079818h-5.674233l-1.327228-0.359181v-11.583826l-0.090051-1.151219-0.264013-1.067309-0.448208-0.87288-0.613984-0.803295-0.798179-0.613984-0.976234-0.433882-1.062192-0.275269-1.162476-0.094144h-15.418154l-1.327228 0.094144-1.156336 0.275269-1.062192 0.339738-0.887207 0.623193-0.704034 0.797156-0.444115 0.961908-0.265036 1.067308-0.094145 1.24127v4.686743l-0.095167 1.592264-0.258896 1.506307-0.448209 1.321088-0.618077 1.326205-2.393513 3.186576v-0.530073l-3.361561 2.209318-0.538259 0.534166-0.438998 0.528026-0.270153 0.6191-0.179078 0.701988 0.095167 0.713245 0.264013 0.708127 0.444115 0.698919 0.991584 1.330298z m2.922562-8.048304z m-7.804756 37.938054v-19.288298c1.954515-1.147126 3.993964-2.294252 5.850241-3.530406l0.618077-0.359181 2.752694-3.182482-0.977258 4.070712v0.707104l0.179079 0.708128 0.25992 0.703012 0.444115 0.713244 2.578731 3.535523 2.572592 3.181459c0.788969 0.971118 1.682315 1.859347 2.564405 2.832511l1.864464 1.850138-4.168949 1.954515-1.948375 0.792039-4.254907 1.422396-4.792143 1.315971-0.708128 0.265037-0.61296 0.35918-2.221598 1.949398z m-162.905231-36.257785v5.479805l-0.180101 0.35918-0.174986 0.168846-0.441045 0.265036c-0.092098 0-0.271176 0-0.35918 0.095168h-18.695804v-6.2831h19.84907v-0.084935h0.002046z m-19.85214-12.116968l0.086981-0.265037 0.173962-0.269129 0.267083-0.180102 0.260943-0.083911 0.264013-0.084935h17.904789l0.353041 0.164753 0.266059 0.274246 0.181125 0.35918v5.653767h-19.857256l0.09926-5.568832z m11.611456 40.591486l-3.811816-1.237177-2.490727 1.50119-1.40807 1.676176c-0.35918 0.363274-0.713244 0.712221-1.067308 1.156336-0.88516 0.793062-1.777483 1.685385-2.750647 2.564405v-21.228487h3.990894l1.067309 3.804653 1.678222 4.247744 2.127453 3.885493 2.66469 3.629667z m-18.263969-13.714349v12.915147l-3.807723-1.236154-2.305509 1.236154c-0.978281 1.062192-1.952468 2.124384-3.016706 3.181459l-2.03945 2.129501v-16.809851h8.070816l0.531096-0.091075 0.52905-0.179078 2.038426-1.146103z m0-13.34903v9.553587l-2.03945-1.067308-0.529049-0.168846-0.531096-0.089027h-7.978718v-7.082303h6.555299l0.626264-0.078794 0.618077-0.180102 0.529049-0.26913 0.536212-0.34997 0.354064-0.528026 0.883114-1.855254-0.883114-1.949399-0.354064-0.533142-0.447184-0.438999-0.531096-0.270152-0.616031-0.179079-0.620123-0.084934h-11.43647l2.393513-5.480828h10.903327c0.438998-0.094144 0.887206-0.094144 1.236154-0.268107l1.506307-0.618077v7.698333l-0.975211 2.119267 0.800226 2.12029z m29.688159 11.494799c-1.772366 1.949398-3.625574 3.984754-5.493108 5.92392l-0.620123 0.62217-1.948375 1.855254-1.598404-2.922563c-0.533143-1.061169-0.970094-2.118244-1.416256-3.180435l-0.797156-2.298346h11.873422z m4.609994 3.5345l-0.174985-0.618077-0.269129-0.618077-0.354064-0.52905-0.617054-0.618077-3.192715-0.887206 2.041496-1.685385 0.618076-0.787946 0.446162-0.88209 0.267083-0.972141 0.082888-0.967024v-22.294772l-0.082888-0.968048-0.267083-0.981351-0.446162-0.877996-0.618076-0.798179-0.800226-0.612961-0.887206-0.444115-0.970095-0.265036-0.977257-0.094144h-23.040762l-0.977258 0.094144-0.975211 0.265036-0.88516 0.444115-0.800225 0.612961-0.61603 0.708128-0.975211 2.034332-1.424442-0.707104-0.618077-0.169869-0.621147-0.095168h-8.776897c0.092098-0.708128 0.26913-1.411139 0.448208-2.029216l0.086981-0.274246 0.084934-0.613984v-0.708127l-0.173962-0.618077-0.261966-0.52905-0.447185-0.708128-0.533143-0.438998-0.61603-0.35918-0.711198-0.270153-0.802272-0.078795h-0.708128l-0.61603 0.173962-0.62831 0.265037-0.523933 0.438998-0.447185 0.528026-0.35304 0.6191-0.261967 0.618077-0.713244 2.921539-0.793062 2.742461-0.975211 2.653433-1.062192 2.563382-1.162476 2.478448-1.234107 2.394536-1.423419 2.203178-1.503237 2.213412-0.447185 0.704034-0.261966 0.708128-0.177032 0.708128v0.703011l0.177032 0.712221 0.261966 0.618077 0.447185 0.52905 0.713245 0.618077 2.744507 0.448208 2.568498-1.596358 1.333368-1.769296h1.588172v7.076162h-5.938246l-0.616031 0.089028-0.621147 0.181125-0.536212 0.257873-0.438998 0.440022-0.354064 0.533142-0.264013 0.533143-0.090051 0.6191v1.415233l0.173962 0.618076 0.267083 0.530073 0.35918 0.528026 0.444115 0.355087 0.529049 0.264013 0.533143 0.169869 0.620124 0.099261h5.934152v20.516266l0.271176 1.675152 0.177032 0.713244 0.261967 0.623194 0.354064 0.618077 0.442068 0.529049 0.533142 0.438999 0.623194 0.270152 0.61603 0.169869 0.616031 0.089028h0.713244l0.711198-0.179079 0.708128-0.259919 1.506306-0.797156 2.305509-1.685385 2.393513-1.940189c1.236154-1.14508 2.480494-2.298346 3.632737-3.444449l2.126431-2.213411v4.426823l0.180102 1.851161 0.35918 1.590217 0.61603 1.237178 0.884137 0.972141 1.152243 0.533142 1.416256 0.180102 1.511423-0.265036 1.681292-0.533143 2.131547-1.326205 2.301415-1.774413c1.239224-1.147126 2.568499-2.294252 3.816932-3.440355l1.413186-1.427512 0.442069-0.703012 0.35918-0.704034 0.173962-0.708128 0.264013-2.653433 2.480494 2.744507 3.373841 2.920516 3.806699 2.653433 4.254907 2.293229 2.835582 0.623194 2.399653-1.599428 0.260943-2.913353-2.038426-2.124383-3.368724-1.765204-2.929726-1.864463-2.568498-1.940189-1.687432-1.412163c1.598404-1.50119 3.282766-3.006474 4.795212-4.597714 0.791016-0.797156 1.588171-1.684362 2.393514-2.482541l0.528026-0.618077 0.357134-0.523933 0.261966-0.623193 0.174985-0.618077 0.268106-0.094144z m40.244587-35.280528l-0.708128 0.091074-0.712221 0.173962-0.613984 0.26913-0.538259 0.434905-0.438998 0.533142-0.359181 0.618077-0.173962 0.708128-0.084934 0.703011 0.084934 0.803296 0.173962 0.703011 0.359181 0.623194 0.438998 0.529049 0.538259 0.348947 0.613984 0.270153 0.623193 0.180102 0.707105 0.083911h31.994691l0.708128-0.083911 0.713245-0.180102 0.61296-0.270153 0.62831-0.348947 0.438998-0.529049 0.359181-0.623194 0.174985-0.703011 0.084935-0.803296-0.084935-0.703011-0.174985-0.708128-0.359181-0.618077-0.438998-0.533142-0.62831-0.434905-0.61296-0.26913-0.713245-0.173962h-32.612768v-0.091074z m-14.98018-0.792039l-2.043542 3.620457-2.214435 3.450589-2.474354 3.360537-2.751671 3.270487-0.444115 0.529049-0.348947 0.618077-0.185218 0.618077v0.708128l0.090051 0.618077 0.269129 0.623193 0.348948 0.613984 0.62831 0.707105 2.564405 0.887206 2.303462-1.236154 2.751671-3.361561 2.573615-3.629667 2.473331-3.889587 2.572591-4.338818 0.449232-2.832511-1.864464-2.288113-2.837628-0.179079-1.860371 2.130524z m-4.960988 36.965913l1.949398-2.308579v23.441899l0.084935 0.703011 0.180101 0.708128 0.265037 0.618077 0.35918 0.530072 0.533143 0.444115 0.615007 0.359181 0.706081 0.173962 0.713244 0.090051 0.792039-0.090051 0.713245-0.173962 0.613984-0.359181 0.537235-0.444115 0.349971-0.613983 0.270153-0.619101 0.173962-0.712221 0.095167-0.707104v-33.076327l1.855255-3.176342c1.067308-2.033309 1.156336-2.921539 1.335414-5.225002l-2.043542-2.209318-2.833535 0.090051-1.954515 2.119267-1.156336 2.213412-1.147126 2.034333-1.156336 1.950421-1.237177 1.939165-2.663667 3.720742-3.006473 3.625574-1.158383 2.562358 1.067309 2.659573 2.658549 0.966001 2.488681-1.234107z m13.738909-17.777899l0.090051 1.147127 0.168845 0.708127 0.359181 0.618077 0.444115 0.528026 0.524956 0.349971 0.62831 0.270153 0.618077 0.173962 0.708128 0.094144h24.105V691.481767l-0.089027 0.973165-0.090051 0.792039-0.169869 0.707104c-0.179079 0.264013-0.26913 0.533143-0.529049 0.712221-0.094144 0.170892-0.270153 0.254803-0.444115 0.440022l-0.623194 0.258896-0.533142 0.180102-0.973164 0.090051c-0.623193 0-1.24127 0-1.77953-0.090051l-2.917446-0.438998-6.473435-1.591241c-0.35918-0.095167-0.62217-0.095167-0.971117-0.095168h-0.359181l-0.793062 0.180102-0.449232 0.264013-1.684362 2.035356 0.095168 3.095501 2.298346 1.591242 3.281742 0.802272 2.832512 0.615007 2.663666 0.443091 2.393513 0.355088 2.124384 0.179078h1.954515l1.684362-0.179078 1.506307-0.355088 1.327228-0.522909 1.156336-0.799202 0.97828-0.981351 0.787946-1.147126 0.538259-1.416256 0.359181-1.586125 0.259919-1.770319 0.089028-1.949399v-26.971281h6.826476l0.623193-0.085958 0.6191-0.179078 0.618077-0.265037 0.533143-0.354064 0.444115-0.529049 0.354064-0.623193 0.174985-0.707105 0.089028-0.787946-0.089028-0.713244-0.529049-0.707105-0.265036-0.618077-0.444115-0.529049-0.538259-0.438998-0.52905-0.180102-0.618077-0.179079-0.706081-0.091074h-38.118156l-0.708128 0.091074-0.708128 0.179079-0.618077 0.259919-0.534165 0.448209-0.438999 0.529049-0.354064 0.618077-0.182148 0.887206zM327.727625 649.468908h5.759167l-2.573615 12.117992-0.177032 2.214435 0.086981 1.236154c0.086981 0.618077 0.182149 1.147126 0.357134 1.765203 0.177032 0.623193 0.446162 1.153266 0.713244 1.685385 0.61603 1.321088 1.232061 2.653433 1.772367 4.069689l0.621146 1.586124 0.795109 3.011591 0.26913 1.586124v1.147126l-0.092098 0.622171-0.177032 0.712221c-0.084934 0.170892-0.177032 0.438998-0.354064 0.615007l-0.533142 0.528026c-0.261966 0.084934-0.529049 0.084934-0.789993 0.084934h-0.182148l-2.573615-0.438998h-0.708128l-0.61603 0.180102-1.598405 0.708128v-33.431414h0.001024z m44.671408 12.735046l0.261967-1.326205-0.088004-1.850138 4.078898 2.124384 2.837628 0.173962 2.306532-2.038426 0.173962-2.918469-2.039449-1.854231-2.742461-1.238201-2.490727-1.236153-2.301415-1.41114-2.213412-1.511423-2.127453-1.586125-1.949399-1.774413-1.862417-1.855254-2.662643-3.003403-0.972141-0.807389-1.062191-0.433882-1.062192-0.084934-1.064239 0.258896-0.97828 0.618077-0.970095 0.88209c-1.156336 1.511423-2.39863 2.922563-3.632737 4.337795l-0.533142 0.623194-1.685386 1.76111-1.772366 1.681292-1.864464 1.590218-1.947351 1.591241-5.318123 3.809769 1.326205-6.104022h0.092098l0.269129-2.482541v-1.506306l-0.182148-1.496074-0.173962-0.448208-0.179079-0.438999-0.348947-0.438998-0.449232-0.360204-0.438998-0.264013-1.15122-0.34997-1.324158-0.185219H325.865207l-1.236153 0.091074-1.067309 0.26913-0.972141 0.438998-0.708128 0.623194-0.533142 0.787946-0.352018 0.893346-0.179078 0.972141-0.086981 0.972141v53.057403l0.086981 0.623193 0.179078 0.613984 0.352018 0.538259 0.451278 0.438998 0.529049 0.349971 0.61603 0.26913 0.618077 0.173962 0.713245 0.095167 0.708128-0.095167 0.711198-0.173962 0.620123-0.26913 0.529049-0.349971 0.448209-0.529049 0.261966-0.533142 0.179079-0.612961 0.082887-0.623193v-12.646018l1.690502 0.623193c0.441045 0.084934 0.883113 0.258896 1.329275 0.349971 0.798179 0.083911 1.588171 0.257873 2.393513 0.179078h0.970094l0.890277-0.095167 0.88209-0.174985 0.890276-0.258897 0.883113-0.449231 0.800226-0.438999 0.705058-0.528026 0.708128-0.6191 0.536212-0.712221 0.446162-0.793062 0.348947-0.88209 0.267083-0.88209 0.177032-0.886183 0.267083-1.855255v-0.97214l-0.088005-1.147127c-0.092098-0.802272-0.179079-1.591241-0.354063-2.308578l-0.798179-3.181459-1.241271-3.181459-1.954515-4.417613-0.261966-1.421373 0.261966-3.096524 1.862418 1.417279 0.620123 0.264013 0.713245 0.174985h0.704034l0.707105-0.174985 0.715291-0.264013 0.708128-0.349971 2.475378-1.680269 0.266059 1.769297c0.088004 0.348947 0.265036 0.613984 0.354064 0.88823l0.359181 0.518816 0.444115 0.448208 0.529049 0.265036 0.623193 0.173962 0.620124 0.090051h6.909363l-2.039449 1.855254-0.354064 0.52905-0.261966 0.62831-0.092098 0.698918v0.708128l0.092098 0.712221c0.529049 2.118244 1.059122 4.239558 1.503237 6.368034 0.444115 2.214435 0.88516 4.502547 1.239223 6.712889l0.705058 4.776793 0.182149 0.708128 0.270153 0.618077 0.354064 0.62831 0.441045 0.528026 0.533142 0.438999 0.618077 0.265036 0.710175 0.173962h0.713244l0.703011-0.173962 1.952469-0.883113-0.267083 2.124383v0.708128l0.179078 0.704035 0.789993 1.779529h-12.134365l2.388396-2.314718 0.352018-0.528026 0.269129-0.618077 0.089028-0.708128v-0.708128c-0.089028-0.706081-0.177032-1.326205-0.359181-2.033309-0.264013-1.147126-0.525979-2.294252-0.880043-3.361561l-0.710174-2.38328-0.800226-2.383281-0.883113-2.478447-2.12643-4.951779-1.244341-2.563382-0.441045-0.623193-0.442068-0.533143-0.536212-0.438998-0.528026-0.355088-0.621147-0.265036-0.708128-0.089027-0.710175 0.089027-0.621147 0.265036-0.620123 0.355088-0.532119 0.438998-0.438999 0.533143-0.269129 0.623193-0.086981 0.618077c0.086981 2.208295 1.506307 4.507664 2.393513 6.54302l2.037403 5.036713 1.421372 4.426823 1.152243 4.24365 0.267083 0.708128 0.354064 0.613984 0.348947 0.533143 2.393513 2.219551h-9.65694l-0.623194 0.090051-0.621147 0.169868-0.528026 0.270153-0.183172 0.257873-0.35304 0.448209-0.261967 0.524956-0.173962 0.62217-0.092097 0.708128 0.092097 0.698918 0.173962 0.623193 0.261967 0.533143 0.35304 0.529049 0.449232 0.348948 0.523933 0.265036 0.62831 0.179078 0.61603 0.085958h35.368532l0.620124-0.085958 0.529049-0.179078 0.533142-0.265036 0.444115-0.348948 0.354064-0.529049 0.2722-0.533143 0.173962-0.623193 0.088004-0.698918-0.088004-0.708128-0.173962-0.62217-0.2722-0.524956-0.354064-0.537236-0.444115-0.438999-0.533142-0.275269-0.61603-0.174985-0.621147-0.079818h-9.129938c0.354064-0.712221 0.800225-1.506307 1.151219-2.212388l0.084935-0.270153 2.044565-5.65479 0.880044-2.832512 0.807388-2.921539 0.704035-2.918469 0.62524-2.917446 0.444115-3.006474 0.345878-3.006473v-0.797156l-0.084935-0.708128-0.177032-0.708128-0.267083-0.618077-0.354064-0.438998-0.533142-0.440022-0.618077-0.35918-0.708128-0.179079-1.860371-0.180101-1.24127 1.511423c-0.261966 0.348947-0.444115 0.787946-0.61603 1.237177l-0.710175 4.068665-1.156336 6.098905-0.61603 2.828419-2.483564 9.289573c-0.35918-2.653433-0.621147-5.305843-0.975211-7.869224-0.261966-1.675152-0.533143-3.450589-0.796132-5.135974l-0.981351-4.507664-1.14508-4.327562-0.269129-0.623193-1.950422-2.827395h13.032828l0.977257-1.506307 0.167822-0.532119z m-1.243317 2.299369h-0.182148l0.182148-0.25378h0.173962l-0.173962 0.25378z m-21.357423-6.986112l2.565428-2.294252 1.421373-1.506307 1.24434-1.410116 2.034333-2.738367c0.179079-0.180102 0.35918-0.35918 0.446161-0.538259l0.972141-1.062192 2.039449 1.850137 1.236154 1.422396 1.511424 1.421372c0.798179 0.697895 1.685385 1.411139 2.480494 2.025123 1.331321 0.976234 2.662643 1.949398 4.073782 2.832512h-20.025079v-0.002047z m-84.553745 0.270153v-9.106402l0.081865-0.35918 0.177032-0.258897 0.264013-0.180102 0.267083-0.089027h28.53387l0.354064 0.089027 0.272199 0.265037 0.270153 0.444115v9.634428l-0.978281 0.533142h-28.364001c-0.179079-0.095167-0.267083-0.095167-0.441045-0.174985l-0.261966-0.270153-0.179079-0.354064v-0.173962h0.004093v0.001023z m-10.823509 17.512862l2.218527 1.410116 0.533143 0.174986 0.61603 0.095167h16.929578l-2.217505 2.474355-2.037402 1.944281-2.303462 2.03331-2.660597 2.039449-3.009543 2.029216-3.375887 2.119267-4.776794 2.742461v-17.063631h0.083912v0.001023z m4.170996-29.894867v14.859429l0.090051 0.972141 0.269129 0.966001 0.442068 0.88823 0.618077 0.797156 0.703012 0.613983 0.893346 0.448209 0.970094 0.264013 0.978281 0.091074h13.029758v5.39487h-18.87693l-0.708128 0.084934c-0.354064 0.089028-0.618077 0.173962-0.977257 0.438999l-1.685385 1.5104v-15.568581c0.531096-1.326205 0.974188-2.567475 1.506306-3.889587l2.747578-7.871271z m29.690206 34.750455l-2.657527-3.087314h18.522866l0.528026-0.094145 0.626263-0.173962 0.52905-0.270153 0.441045-0.354063 0.36225-0.523933 0.25685-0.530073 0.177032-0.533142 0.092097-0.618077-0.092097-0.618077-0.177032-0.530073-0.25685-0.537236-0.36225-0.438998-0.441045-0.438998-0.52905-0.355088-0.626263-0.180101-0.618077-0.084935h-20.647249v-5.39487h13.732769l0.975211-0.089028 0.972141-0.25992 0.887206-0.453324 0.798179-0.618077 0.621147-0.792039 0.446161-0.887207 0.261967-0.968047 0.092097-0.976234v-13.973247l-0.092097-0.966001-0.261967-0.97828-0.446161-0.88209-0.621147-0.792039-0.798179-0.618077-0.887206-0.448208-0.972141-0.25992-0.975211-0.095168h-33.411971l-0.97828 0.095168-0.972141 0.25992-0.88823 0.448208-0.797156 0.618077-1.424442 1.675152-0.789992-2.473331-0.2722-0.529049-2.303462-1.596358H254.244007l-0.708128 0.176009-0.713245 0.35304-0.618077 0.449232-0.529049 0.522909-0.441045 0.708128-0.354064 0.802272-0.274246 0.876973-0.61603 3.27151-0.800226 3.101641-0.975211 2.913353-1.151219 2.742461-1.239224 2.653433-1.416256 2.472308-1.598404 2.304485-1.763156 2.293229-0.451279 0.623194-0.261966 0.708128-0.179078 0.703011v0.712221l0.086981 0.708128 0.272199 0.708128 0.354064 0.618077 0.525979 0.792039 2.486634 1.061168 3.545756-1.85423v30.068829l0.092098 0.704035 0.173962 0.708127 0.261966 0.623194 0.442069 0.528026 0.536212 0.444115 0.620124 0.35918 0.704034 0.176009 0.805342 0.083911 0.710175-0.083911 0.704034-0.176009 0.625241-0.35918 0.531095-0.444115 0.354064-0.528026 0.260943-0.623194 0.177032-0.708127 0.089028-0.704035v-3.087315l2.214435 1.226944 0.621147 0.090051h0.618077l0.620123-0.090051 0.620124-0.173962 3.279696-1.855254 3.016707-1.859347 2.7486-1.850138 2.475378-1.950422 2.310625-2.025122 3.802606-3.809769v16.096606l0.092098 0.618077 0.177032 0.618077 0.261966 0.538259 0.35918 0.429789 0.531096 0.35918 0.620124 0.274246 0.61603 0.169869 0.715291 0.094144 0.616031-0.094144 0.61603-0.169869 0.533142-0.274246 0.536213-0.35918 0.348947-0.429789 0.2722-0.538259 0.177032-0.618077 0.090051-0.618077v-16.714683l2.657526 2.74246 2.393513 2.203178 2.568499 2.129501 2.749623 2.034332 2.926656 1.944282 3.102665 1.859348 3.459798 1.944281 2.563382 0.091075 2.039449-2.035356 0.447185-3.011591-1.506307-1.944281-4.078898-1.949399-3.545756-1.944282-3.193739-1.940188-2.827395-2.043543-2.579755-2.12029-2.297322-2.124384z m331.399759-8.745174l-0.079818-1.067309-0.359181-0.973164-0.449231-0.88209-0.618077-0.797155-0.798179-0.618077-0.887206-0.448209-0.967025-0.259919-1.067308-0.090051-1.067309 0.090051-0.967024 0.259919-0.887206 0.53826-0.797156 0.618077-0.62831 0.793062-0.438998 0.893346-0.270153 0.966001-0.089028 1.057075 0.089028 1.067309 0.270153 0.977257 0.438998 0.883114 0.62831 0.792039 0.797156 0.618076 0.887206 0.530073 0.977258 0.264013 1.057075 0.095168 1.067308-0.095168 0.967025-0.264013 0.898462-0.530073 0.787946-0.618076 0.618077-0.792039 0.539282-0.883114 0.348948-0.977257v-1.147126h-0.001023z m-201.280236 0l-0.090051-1.067309-0.264013-0.973164-0.444115-0.88209-0.620124-0.797155-0.800225-0.618077-0.88516-0.448209-0.975211-0.259919-1.069355-0.090051-1.062192 0.090051-0.975211 0.259919-0.885159 0.53826-0.797156 0.618077-0.61603 0.793062-0.448208 0.893346-0.258897 0.966001-0.095167 1.057075 0.095167 1.067309 0.258897 0.977257 0.448208 0.883114 0.61603 0.792039 0.797156 0.618076 0.885159 0.530073 0.975211 0.264013 1.062192 0.095168 1.069355-0.095168 0.975211-0.264013 0.88516-0.530073 0.800225-0.618076 0.620124-0.792039 0.444115-0.883114 0.264013-0.977257 0.090051-1.147126z m511.329734-100.112092c0 19.542078-15.867386 35.368532-35.365462 35.368532H126.613164c-19.585057 0-35.362392-15.827477-35.362392-35.368532V331.006809c0-19.540032 15.864316-35.372625 35.362392-35.372625h767.752872c19.587104 0 35.365462 15.832594 35.365462 35.372625v240.291739zM476.186841 460.567607h-16.747429v6.547113h-16.57756v-14.593369h28.541033v-13.793145h-28.541033v-10.085706h33.328059V413.7053H387.816165v14.9372h33.328059v10.085706h-28.537963v13.791098h28.537963v14.59337H387.816165v14.94948h88.370676v-21.494547z m-160.958902-59.871599h-49.629327v-14.760168c0-1.598404-1.246387-2.833535-2.844791-2.833535h-20.1182a2.796696 2.796696 0 0 0-2.832512 2.833535v14.760168h-49.63956c-9.123798 0-16.573467 7.433296-16.573467 16.541745v53.854558c0 9.112542 7.449669 16.455787 16.573467 16.455787h49.634444v23.25361a2.801812 2.801812 0 0 0 2.837628 2.832512h20.1182c1.598404 0 2.844791-1.24127 2.844791-2.832512v-23.25361h49.629327c9.125845 0 16.575514-7.430226 16.575514-16.455787v-53.854558c-0.002047-9.109472-7.357572-16.541745-16.575514-16.541745z m-75.342965 68.63417h-42.804898v-50.331315h42.804898v50.331315z m68.515467 0h-42.802852v-50.331315h42.802852v50.331315z m390.614395-50.331315h13.199627c1.604544 0 2.841721-1.228991 2.841721-2.820232v-8.228405h115.928313v8.228405c0 1.591241 1.24741 2.820232 2.842744 2.820232h13.199627c1.5104 0 2.846838-1.228991 2.846838-2.820232v-9.464559c0-7.961322-6.482645-14.506389-14.541181-14.506389h-50.075489v-6.809079c0-1.591241-1.248434-2.829442-2.842745-2.829442h-18.958794c-1.506307 0-2.841721 1.236154-2.841721 2.829442v6.809079h-49.907667c-8.068769 0-14.530948 6.452969-14.530948 14.506389v9.464559c0.001023 1.591241 1.248434 2.820232 2.839675 2.820232z m-51.233871-1.854231c-2.297322 0-4.077875 1.154289-4.787027 2.660596l-18.96391 36.873816c-0.708128 1.418302 0.180102 2.567475 1.685385 2.567475h19.047822c2.303462 0 4.078899-1.149173 4.797259-2.567475l18.97005-36.873816c0.698918-1.418302-0.185218-2.660596-1.599427-2.660596h-19.150152z m-154.757667-29.709649H370.888634c-9.129938 0-16.572444 7.337105-16.572444 16.452717v89.590458c0 9.100262 7.442506 16.525372 16.572444 16.525372h122.135688c9.136078 0 16.579607-7.336082 16.579607-16.525372v-89.590458c-0.090051-9.115612-7.446599-16.452717-16.580631-16.452717z m-5.580088 105.062847H376.391974V403.615501h111.051236v88.882329z m360.477004-61.026911h-24.284079v-10.343579a2.89084 2.89084 0 0 0-2.932796-2.913353h-16.569374c-1.601474 0-2.927679 1.319042-2.927679 2.913353v10.343579h-56.728002v-10.343579c0-1.594311-1.327228-2.913353-2.921539-2.913353h-16.575514c-1.596358 0-2.922563 1.319042-2.922563 2.913353v10.343579h-24.283056c-1.506307 0-2.842745 1.242294-2.842744 2.835581v12.20702c0 1.586125 1.246387 2.827395 2.842744 2.827395h24.553209v7.600095c0 8.847505 4.073782 17.253966 14.975063 22.557762 4.163833 2.031263 9.214872 4.505617 14.716166 7.074116-9.664104 3.889587-18.261922 5.743818-27.307949 5.743817h-22.948665c-1.599428 0-2.931772 1.239224-2.931772 2.835582v12.024871c0 1.594311 1.332345 2.917446 2.931772 2.917446h22.599718c9.035794 0 20.026102-1.855254 29.426193-5.39487 3.815909-1.416256 10.990309-4.597715 19.234063-8.31334 8.237615 3.715625 15.423271 6.897084 19.227924 8.31334 9.404184 3.540639 20.390399 5.39487 29.432332 5.39487H844.282361c1.596358 0 2.932796-1.326205 2.932795-2.917446v-12.027941c0-1.595334-1.337461-2.832512-2.932795-2.832512h-22.953782c-9.039887 0-17.547655-1.855254-27.301809-5.743817 5.414313-2.653433 10.547217-5.042853 14.710026-7.077186 10.905374-5.300726 14.985296-13.712303 14.985296-22.554692v-7.600095h24.29022a2.804882 2.804882 0 0 0 2.832511-2.827395v-12.20702c-0.092098-1.506307-1.328251-2.835581-2.924609-2.835581z m-46.6249 23.25975c0 4.959965-0.977257 8.933463-7.269567 12.117992-5.136997 2.573615-13.464663 6.54916-21.093411 10.080589-7.529487-3.530406-15.95232-7.506974-21.088294-10.080589-6.29231-3.186576-7.274684-7.073092-7.274684-12.117992v-5.391801h56.728002v5.391801h-0.002046z m-238.161215 4.423752h19.059078c1.421372 0 2.393513-1.144056 1.684362-2.563382l-18.968004-36.877909c-0.708128-1.414209-2.479471-2.656503-4.788049-2.656502h-19.048845c-1.515516 0-2.403746 1.157359-1.689479 2.656502l18.968004 36.877909c0.793062 1.418302 2.568499 2.563382 4.782933 2.563382z m114.876354 9.725502h-61.779042v-61.452607h56.723909c1.505283 0 2.835581-1.249457 2.835582-2.837628v-11.945053c0-1.50119-1.24127-2.730181-2.835582-2.730181H534.949176c-1.585101 0-2.832512 1.228991-2.832511 2.730181v11.945053a2.807952 2.807952 0 0 0 2.832511 2.837628h56.729026v61.452607h-61.773925a2.802836 2.802836 0 0 0-2.837628 2.837629v12.55699c0 1.50119 1.24127 2.827395 2.837628 2.827395h61.773925v23.698748c0 1.591241 1.24127 2.832512 2.841721 2.832512h18.963911a2.803859 2.803859 0 0 0 2.837628-2.832512v-23.698748h61.683874c1.596358 0 2.837628-1.239224 2.837628-2.827395v-12.55699c0.001023-1.5104-1.24127-2.837628-2.832511-2.837629z m278.658557-144.238078l-0.967024-6.191003-1.511423-6.008854-2.128477-5.755074-2.65855-5.482874-3.106757-5.123694-3.630691-4.776794-4.078898-4.417613-4.432963-4.068665-4.787026-3.627621-5.142114-3.093454-5.489014-2.65548-5.759167-2.121314-6.02932-1.50119-6.208399-0.975211-6.114255-0.261966h-768.277827l-6.116301 0.261966-6.201236 0.975211-6.031367 1.50119-5.759167 2.121314-5.495154 2.65548-5.141091 3.093454-4.790096 3.627621-4.427846 4.068665-4.078898 4.417613-3.632737 4.866844-3.099595 5.120625-2.664689 5.482874-2.127454 5.756098-1.506307 6.011924-0.97521 6.191002-0.261967 6.097882v353.133759l0.261967 6.102998 0.97521 6.189979 1.506307 6.018064 2.127454 5.744841 2.664689 5.479805 3.099595 5.13188 3.632737 4.777817 4.078898 4.421706 4.427846 4.069689 4.790096 3.625574 5.141091 3.091408 5.495154 2.653433 5.759167 2.124383 6.031367 1.497097 6.201236 0.976235 6.116301 0.34997h768.277827l6.118348-0.34997 6.208399-0.976235 6.024203-1.497097 5.759168-2.124383 5.489014-2.653433 5.151323-3.091408 4.782934-3.625574 4.432962-4.069689 4.078899-4.421706 3.635807-4.777817 3.101641-5.13188 2.653433-5.479805 2.133593-5.744841 1.506307-6.018064 0.977257-6.189979 0.348948-6.102998V330.74382l-0.358158-6.101975z m-9.215895 359.055632c0 29.27065-23.74582 52.977585-53.087079 52.977585H126.613164c-29.336142 0-53.092195-23.705911-53.092195-52.977585V331.006809c0-29.271674 23.756053-52.970422 53.092195-52.970422h767.752872c29.341259 0 53.087079 23.701818 53.087079 52.970422v352.690668z" fill="#488aff" p-id="2713"></path></svg>